<?xml version="1.0" standalone="no"?>
<!DOCTYPE svg PUBLIC "-//W3C//DTD SVG 20010904//EN"
 "http://www.w3.org/TR/2001/REC-SVG-20010904/DTD/svg10.dtd">
<svg version="1.0" xmlns="http://www.w3.org/2000/svg"
 width="900.000000pt" height="920.000000pt" viewBox="0 0 900.000000 920.000000"
 preserveAspectRatio="xMidYMid meet">

<g transform="translate(0.000000,920.000000) scale(0.100000,-0.100000)"
fill="#000000" stroke="none">
<path d="M3535 9051 c-170 -76 -324 -146 -342 -155 -27 -15 -74 -17 -380 -17
-336 -1 -353 0 -498 26 -82 14 -175 30 -205 35 -58 10 -268 22 -695 40 -162 7
-301 19 -370 31 -144 25 -295 25 -429 -1 -57 -11 -170 -25 -251 -30 -180 -11
-203 -21 -262 -110 -39 -59 -43 -70 -43 -127 0 -62 38 -284 65 -375 12 -40 11
-62 -2 -150 -8 -57 -18 -213 -22 -348 -4 -135 -10 -250 -14 -256 -4 -7 -12
-104 -17 -215 -6 -112 -22 -295 -36 -406 -26 -216 -31 -392 -13 -489 5 -32 30
-121 55 -197 25 -75 52 -172 61 -215 19 -103 31 -663 14 -714 -10 -30 -7 -52
19 -153 34 -134 67 -198 116 -227 39 -23 37 -19 23 -55 -6 -15 -15 -78 -18
-138 -5 -89 -11 -120 -31 -159 -22 -43 -32 -52 -89 -75 -39 -16 -67 -35 -71
-47 -39 -108 -43 -133 -36 -247 4 -62 7 -160 7 -217 0 -58 4 -189 9 -292 7
-153 13 -194 29 -225 33 -66 109 -161 149 -188 l38 -25 2 -302 c2 -196 -1
-322 -9 -358 -6 -30 -13 -84 -16 -120 l-4 -65 -92 -92 c-50 -51 -98 -93 -105
-93 -12 0 -13 -56 -6 -358 11 -438 11 -888 -1 -1084 l-8 -147 26 -6 c18 -5 29
-17 37 -39 13 -40 71 -97 128 -126 66 -32 180 -58 304 -68 156 -13 1606 3
1718 18 66 10 100 9 153 0 76 -13 151 -8 275 21 46 10 93 19 105 19 12 0 89
-19 172 -41 167 -47 231 -52 446 -35 64 5 128 6 142 2 40 -10 84 -52 138 -133
60 -89 95 -113 164 -113 57 0 93 17 186 85 34 25 67 45 74 45 7 0 53 -15 101
-34 74 -28 111 -36 219 -44 120 -10 137 -14 225 -53 140 -63 177 -61 301 13
164 99 123 93 618 90 616 -4 793 13 1014 97 60 23 125 41 147 41 23 0 81 -17
139 -40 113 -46 132 -47 219 -20 87 27 116 26 277 -17 125 -33 154 -37 265
-37 151 -1 157 1 301 116 192 153 265 162 598 79 139 -35 180 -41 265 -41 56
0 107 4 113 8 30 19 36 110 39 592 1 326 7 552 18 690 20 260 20 346 -1 500
-14 106 -17 220 -18 755 0 618 -1 631 -22 708 -30 105 -54 157 -95 203 -19 22
-39 51 -46 67 -6 15 -23 32 -38 37 -59 23 -61 35 -11 109 68 102 95 161 108
237 16 95 4 305 -26 459 -14 69 -25 146 -25 173 0 117 -32 211 -95 281 -19 21
-35 47 -35 59 0 11 -8 22 -19 25 -20 5 -36 47 -48 124 -5 37 1 58 42 149 51
115 50 104 29 264 l-5 45 71 55 c116 89 145 126 163 206 28 124 39 275 39 559
1 256 -7 445 -44 1050 -19 310 -17 412 11 525 30 123 31 213 3 271 -12 24 -61
85 -109 135 -162 169 -280 204 -684 205 -231 0 -207 4 -379 -60 -69 -26 -140
-27 -188 -2 -20 10 -55 24 -77 31 -22 7 -80 30 -129 52 -115 51 -236 77 -416
88 -193 12 -247 18 -327 35 -38 8 -122 15 -188 15 -66 1 -165 7 -220 14 -152
20 -253 9 -310 -36 -32 -25 -84 -138 -92 -199 -10 -81 -21 -88 -168 -104 -72
-8 -155 -15 -186 -15 l-56 0 -76 80 c-42 44 -83 80 -92 80 -8 0 -15 5 -15 10
0 6 -40 10 -100 10 l-99 0 -22 50 c-25 59 -92 123 -145 141 -29 10 -161 14
-519 16 l-480 2 -310 -138z m-1803 -1486 c70 -14 198 -73 277 -128 25 -17 128
-92 227 -166 100 -75 239 -176 309 -225 70 -50 160 -121 200 -158 56 -52 134
-104 331 -221 284 -168 363 -219 564 -367 74 -55 212 -147 306 -205 94 -58
225 -142 290 -188 66 -46 142 -96 169 -112 86 -49 163 -104 224 -159 33 -29
176 -128 318 -221 574 -376 673 -442 784 -526 157 -118 340 -239 619 -409 314
-192 490 -307 667 -438 195 -144 247 -176 362 -226 115 -50 378 -232 438 -304
29 -34 41 -59 46 -92 13 -102 -74 -454 -201 -810 -17 -47 -44 -128 -61 -181
-37 -120 -108 -280 -171 -384 -27 -44 -51 -92 -55 -107 -11 -45 -76 -96 -132
-103 -26 -4 -63 -11 -81 -17 -24 -7 -42 -6 -65 3 -22 9 -109 13 -287 14 -140
1 -318 8 -395 15 l-140 12 -84 82 c-46 44 -162 173 -259 286 -96 113 -293 324
-437 470 -144 146 -296 306 -337 356 -42 49 -139 151 -215 225 -76 74 -160
162 -186 196 -26 34 -95 106 -153 160 -58 54 -129 125 -158 159 -46 55 -963
1006 -1445 1499 -200 205 -368 389 -419 460 -16 22 -55 62 -88 89 -73 60 -109
98 -291 309 -80 92 -166 184 -191 205 -74 59 -223 214 -339 352 -72 86 -114
128 -168 169 -67 51 -358 339 -375 371 -10 19 -19 52 -21 73 l-4 39 242 103
c294 126 281 122 385 100z m5077 -109 c24 -8 123 -68 222 -133 168 -111 179
-120 194 -162 22 -66 20 -175 -5 -209 -11 -15 -33 -84 -50 -157 -16 -71 -36
-152 -45 -179 -8 -27 -15 -77 -15 -111 0 -43 -5 -66 -15 -75 -12 -10 -15 -42
-15 -172 0 -205 -3 -211 -99 -229 -97 -17 -118 -7 -342 159 -282 208 -1259
972 -1259 984 0 5 15 25 33 43 29 29 42 34 102 40 156 15 279 40 523 106 230
62 399 100 502 113 64 8 226 -3 269 -18z m-4969 -3813 c30 -19 165 -146 300
-282 135 -135 270 -268 300 -296 31 -27 118 -117 194 -198 76 -82 184 -189
240 -239 245 -219 534 -494 535 -508 1 -10 -44 -36 -131 -77 -110 -51 -155
-66 -263 -87 -76 -15 -196 -48 -290 -82 -304 -108 -353 -118 -646 -135 -176
-11 -202 -10 -247 4 -28 10 -58 17 -68 17 -9 0 -69 51 -133 114 -64 62 -186
170 -271 240 -85 70 -161 136 -168 145 -20 28 7 134 68 276 48 110 79 189 140
365 13 36 52 128 87 204 36 77 87 207 114 289 44 135 94 251 122 285 15 19 51
8 117 -35z"/>
</g>
</svg>
