<?xml version="1.0" standalone="no"?>
<!DOCTYPE svg PUBLIC "-//W3C//DTD SVG 20010904//EN"
 "http://www.w3.org/TR/2001/REC-SVG-20010904/DTD/svg10.dtd">
<svg version="1.0" xmlns="http://www.w3.org/2000/svg"
 width="251.000000pt" height="201.000000pt" viewBox="0 0 251.000000 201.000000"
 preserveAspectRatio="xMidYMid meet">

<g transform="translate(0.000000,201.000000) scale(0.100000,-0.100000)"
fill="#000000" stroke="none">
<path d="M485 1886 c-17 -7 -36 -20 -44 -29 -7 -10 -19 -17 -25 -17 -6 0 -24
-11 -41 -24 -25 -20 -30 -33 -37 -92 -21 -177 -21 -206 2 -267 28 -75 35 -70
9 7 -21 65 -25 156 -8 188 9 17 13 18 20 7 7 -10 8 -6 4 11 -4 18 2 33 20 54
14 16 27 27 29 25 1 -2 8 -13 14 -24 9 -17 10 -15 9 15 -2 33 0 35 58 59 44
19 79 25 131 26 65 0 76 -3 123 -35 39 -26 59 -50 81 -94 17 -33 30 -64 30
-70 0 -7 9 -19 20 -29 11 -9 20 -26 20 -37 0 -17 -5 -19 -27 -15 -27 6 -27 5
3 -8 17 -8 39 -25 48 -38 9 -13 16 -19 16 -13 0 6 -8 18 -19 28 -12 11 -16 25
-13 42 2 14 -2 32 -11 42 -9 10 -33 50 -53 91 -40 81 -89 124 -158 141 -23 6
-48 15 -56 20 -25 17 -94 50 -105 49 -5 0 -24 -6 -40 -13z m104 -23 c23 -16
23 -17 5 -24 -28 -11 -79 -10 -109 1 -23 9 -25 13 -15 25 17 20 90 19 119 -2z
m-171 -62 c-2 -16 -18 -44 -36 -62 l-32 -33 0 31 c0 31 41 93 61 93 6 0 9 -13
7 -29z m76 21 c3 -5 -11 -15 -30 -24 -31 -14 -34 -14 -34 2 0 9 3 20 7 23 9
10 51 9 57 -1z"/>
<path d="M818 1553 c7 -3 16 -2 19 1 4 3 -2 6 -13 5 -11 0 -14 -3 -6 -6z"/>
<path d="M745 1526 c-16 -13 -34 -21 -40 -18 -5 3 1 -8 15 -25 14 -17 27 -29
29 -27 2 2 -1 10 -8 17 -16 20 -5 41 32 60 18 9 25 16 17 16 -8 1 -28 -10 -45
-23z"/>
<path d="M559 1513 c-14 -9 -32 -25 -39 -37 -12 -21 -12 -20 11 1 13 12 40 29
59 37 24 10 29 15 15 15 -11 0 -32 -7 -46 -16z"/>
<path d="M660 1526 c0 -2 7 -7 16 -10 8 -3 12 -2 9 4 -6 10 -25 14 -25 6z"/>
<path d="M941 1442 c-2 -47 -17 -73 -39 -65 -16 6 -16 6 1 -11 18 -18 22 -43
9 -63 -12 -20 -52 -30 -145 -38 -189 -15 -295 -124 -257 -266 15 -56 83 -124
139 -139 45 -12 115 -4 147 16 20 12 23 10 39 -34 10 -26 24 -55 32 -64 8 -9
13 -24 11 -34 -2 -14 -15 -7 -61 33 -55 49 -60 51 -135 58 -42 4 -106 14 -142
23 l-65 17 3 58 c5 76 -7 197 -20 197 -5 0 -6 -9 -3 -20 6 -20 2 -20 -224 -20
l-231 0 0 -545 0 -545 909 0 c829 0 910 1 922 16 45 55 142 87 311 103 114 11
182 4 244 -25 34 -16 84 -67 84 -85 0 -5 9 -9 20 -9 20 0 20 7 20 545 l0 545
-765 0 -764 0 24 24 24 25 -20 48 c-11 26 -35 62 -52 78 -35 34 -40 69 -18
123 7 16 11 43 8 58 -4 28 -4 28 -6 -4z m10 -189 c14 -16 34 -47 44 -71 17
-39 17 -44 3 -58 -36 -36 -227 -55 -349 -35 -58 9 -87 -1 -95 -34 -14 -57 39
-105 121 -110 59 -4 145 12 165 30 21 19 30 19 30 0 0 -18 -61 -75 -99 -92
-36 -17 -102 -16 -143 2 -133 55 -146 251 -23 324 49 28 93 39 185 46 47 3 89
10 94 15 17 17 42 11 67 -17z m-320 -190 c1 -16 2 -16 6 0 3 11 10 16 20 13 8
-3 26 -6 39 -6 22 0 24 -3 24 -55 l0 -55 -35 0 c-33 0 -35 2 -37 38 l-1 37 -4
-38 -4 -37 -31 17 c-36 22 -52 56 -38 84 14 25 60 26 61 2z m171 -25 l1 -33 4
33 c3 24 9 32 25 32 18 0 19 -4 13 -37 -8 -46 -31 -75 -44 -55 -7 11 -9 11
-14 -2 -4 -9 -18 -16 -32 -16 -24 0 -25 3 -25 55 l0 55 35 0 c32 0 35 -2 37
-32z m1541 -98 c140 -36 132 -24 135 -175 4 -146 -12 -332 -34 -407 -9 -27
-13 -66 -11 -85 4 -29 1 -36 -19 -43 -29 -11 -63 -2 -42 11 9 6 2 9 -19 9 -18
0 -33 -4 -33 -10 0 -5 4 -10 10 -10 5 0 7 -6 4 -14 -12 -30 -199 -25 -322 9
-57 16 -61 19 -60 46 1 34 3 35 74 10 30 -11 88 -22 127 -25 l72 -5 -50 13
c-27 8 -41 15 -31 15 35 2 7 14 -51 22 -73 10 -165 58 -174 90 -4 13 -7 19 -8
13 -2 -21 -40 -24 -46 -4 -3 10 -12 21 -20 24 -12 4 -9 11 11 31 17 17 23 32
19 45 -4 13 0 22 14 29 23 13 38 68 22 84 -13 13 -15 31 -3 23 10 -6 13 10 13
52 -1 100 -8 110 -70 111 -18 1 -50 11 -69 23 l-36 22 29 9 c20 7 48 6 88 -2
33 -7 60 -11 61 -9 2 2 11 28 20 58 10 30 23 58 30 63 22 14 288 -2 369 -23z
m-1883 -40 c0 -5 -4 -10 -9 -10 -6 0 -13 5 -16 10 -3 6 1 10 9 10 9 0 16 -4
16 -10z m45 -41 c28 -10 88 -23 135 -30 l86 -11 -23 -67 c-12 -36 -23 -73 -23
-83 0 -9 -5 -19 -10 -21 -6 -3 -5 -4 1 -3 7 1 20 29 29 62 20 73 36 104 55
104 7 0 38 -22 68 -50 30 -27 58 -50 61 -50 3 0 6 12 6 28 l1 27 24 -30 c30
-36 34 -24 5 12 -20 26 -29 113 -11 113 5 0 16 -18 25 -41 9 -22 21 -37 26
-34 24 15 132 26 146 15 7 -7 17 -9 22 -6 14 8 35 -21 26 -35 -5 -9 48 -11
219 -7 l226 4 4 -25 c3 -22 4 -20 6 7 4 102 89 133 179 65 36 -27 40 -44 16
-67 -8 -9 -11 -16 -5 -16 5 0 13 5 16 10 4 6 11 7 17 4 7 -5 9 -1 5 9 -8 21
-4 21 33 2 52 -27 52 -84 0 -105 -35 -15 -73 -7 -100 20 -17 17 -18 25 -10 43
11 21 11 21 -5 2 -8 -11 -13 -26 -9 -35 8 -18 8 -28 -2 -59 l-7 -24 20 20 c17
17 30 20 69 16 69 -6 74 -9 74 -37 0 -45 -64 -71 -111 -46 -15 8 -23 7 -35 -5
-9 -8 -19 -13 -24 -10 -5 3 -10 0 -12 -7 -3 -8 -15 -9 -45 -1 -25 6 -45 7 -51
1 -19 -19 -196 -46 -349 -53 -143 -7 -163 -6 -187 10 -18 12 -26 27 -27 49 -2
30 -2 30 -6 3 -4 -22 6 -39 56 -93 42 -46 69 -88 90 -139 46 -111 51 -105 -94
-105 l-125 0 -11 27 c-33 87 -164 135 -280 103 -23 -7 -62 -7 -105 -1 -38 4
-59 9 -47 10 19 1 26 12 42 69 20 67 36 170 25 160 -3 -3 -9 -35 -14 -71 -5
-35 -14 -77 -20 -91 l-10 -27 -32 24 c-42 31 -71 45 -39 19 23 -18 23 -22 12
-51 -11 -26 -17 -30 -40 -26 -24 5 -24 5 -4 -4 47 -21 189 -34 237 -22 24 6
64 11 88 11 78 -1 178 -63 178 -110 l0 -22 -34 21 c-18 12 -44 21 -57 20 -19
-1 -17 -3 9 -9 55 -13 92 -50 92 -93 0 -41 -25 -44 -65 -8 -20 17 -43 31 -53
31 -10 -1 -1 -9 20 -21 40 -21 58 -45 58 -79 0 -31 -29 -36 -72 -12 -34 20
-41 21 -71 9 -25 -11 -85 -14 -247 -13 -214 1 -215 1 -272 29 -108 53 -157
144 -145 268 6 56 50 184 68 194 13 8 111 -22 195 -61 88 -40 99 -37 17 5 -66
33 -183 71 -219 71 -33 0 -30 19 9 76 41 59 105 110 155 124 36 9 39 13 57 80
15 56 22 69 35 64 8 -4 38 -15 65 -25z m381 23 c6 -4 8 -27 5 -61 -5 -42 -8
-51 -17 -40 -10 13 -44 93 -44 104 0 8 44 6 56 -3z m-716 -361 c0 -6 -4 -13
-10 -16 -5 -3 -10 1 -10 9 0 9 5 16 10 16 6 0 10 -4 10 -9z m1656 -1 c47 0 33
-64 -16 -75 -15 -3 -39 -1 -53 4 -51 19 -25 89 28 76 11 -3 30 -5 41 -5z
m-1278 -163 c2 -12 -3 -17 -17 -17 -12 0 -21 6 -21 13 0 31 32 34 38 4z m1565
-74 c-7 -2 -19 -2 -25 0 -7 3 -2 5 12 5 14 0 19 -2 13 -5z"/>
<path d="M1079 737 c-10 -23 -18 -51 -18 -62 0 -11 8 2 17 30 13 38 23 51 42
55 l25 6 -23 6 c-20 6 -26 1 -43 -35z"/>
<path d="M1685 750 c3 -5 14 -10 23 -10 15 0 15 2 2 10 -20 13 -33 13 -25 0z"/>
<path d="M440 744 c45 -17 74 -24 64 -14 -5 5 -25 12 -44 15 -19 3 -28 3 -20
-1z"/>
<path d="M545 690 c24 -28 37 -35 70 -36 l40 -2 -42 12 c-23 6 -54 22 -69 36
-28 25 -28 25 1 -10z"/>
<path d="M1692 670 c0 -19 6 -57 13 -85 17 -66 17 -38 1 50 -9 46 -14 58 -14
35z"/>
<path d="M1053 605 c0 -27 2 -38 4 -22 2 15 2 37 0 50 -2 12 -4 0 -4 -28z"/>
<path d="M586 610 c8 -43 14 -51 14 -19 0 13 -5 31 -10 39 -7 11 -8 5 -4 -20z"/>
<path d="M840 1436 c0 -9 7 -16 16 -16 17 0 14 22 -4 28 -7 2 -12 -3 -12 -12z"/>
<path d="M751 1424 c0 -11 3 -14 6 -6 3 7 2 16 -1 19 -3 4 -6 -2 -5 -13z"/>
<path d="M590 1391 c0 -12 6 -21 16 -21 9 0 14 7 12 17 -5 25 -28 28 -28 4z"/>
<path d="M428 1343 l-3 -58 -19 37 c-14 28 -23 35 -32 27 -7 -5 -11 -18 -9
-27 2 -9 4 -29 4 -44 1 -16 4 -28 9 -28 4 0 6 19 4 43 -4 47 7 43 28 -11 11
-28 10 -35 -4 -51 -9 -9 -15 -31 -15 -47 2 -27 2 -27 6 -4 7 34 21 50 47 51
15 1 16 3 5 6 -18 4 -34 43 -19 43 5 0 10 26 12 57 l3 58 25 -47 c13 -26 26
-45 28 -43 7 6 -48 95 -58 95 -5 0 -10 -26 -12 -57z"/>
<path d="M750 1373 c0 -30 -41 -75 -81 -89 -25 -9 -28 -13 -13 -13 42 -2 121
82 103 110 -7 11 -9 9 -9 -8z"/>
<path d="M825 1380 c-25 -11 1 -11 35 0 20 6 21 8 5 8 -11 0 -29 -3 -40 -8z"/>
<path d="M500 1362 c0 -20 31 -62 54 -73 20 -10 20 -10 -1 8 -12 10 -29 32
-37 48 -9 17 -16 24 -16 17z"/>
<path d="M588 1273 c7 -3 16 -2 19 1 4 3 -2 6 -13 5 -11 0 -14 -3 -6 -6z"/>
<path d="M427 1202 c-3 -4 -1 -16 4 -27 4 -11 8 -14 8 -6 1 7 7 11 15 8 10 -4
13 -1 10 8 -6 16 -31 27 -37 17z"/>
<path d="M412 1134 c10 -10 20 -16 22 -13 3 3 -5 11 -17 18 -21 13 -21 12 -5
-5z"/>
</g>
</svg>
